<?xml version="1.0" encoding="UTF-8"?> <svg xmlns="http://www.w3.org/2000/svg" xmlns:xlink="http://www.w3.org/1999/xlink" id="logo-light" width="427" height="105" viewBox="0 0 427 105"><defs><style> .cls-1 { fill: url(#linear-gradient); } .cls-2 { fill: #000000; } </style><linearGradient id="linear-gradient" x1="1" y1="53" x2="95" y2="53" gradientUnits="userSpaceOnUse"><stop offset="0" stop-color="#fc963a"></stop><stop offset="1" stop-color="#ff636a"></stop></linearGradient></defs><path id="icon" class="cls-1" d="M18.91,32.16a42.78,42.78,0,0,1,10.461,1.4,68.222,68.222,0,0,1,21.529,8.7c-0.168-2.566-.975-9.357-6.2-14.529a23.5,23.5,0,0,0-7.248-4.723C34.79,21.822,31.522,21.191,27.05,20.6c-7.38-.976-19.2-1.428-23.982,5.558C-1.213,32.2,2.31,40.981,4.775,47.073l2.82,6.968c1.079-2.72,5.182-18.726,6.319-20.339C14.8,32.426,17.541,32.194,18.91,32.16Zm32.6-14.768a42.792,42.792,0,0,1,4.018,9.765,68.332,68.332,0,0,1,3.234,23.005c2.137-1.429,7.611-5.523,9.477-12.633a23.537,23.537,0,0,0,.464-8.642c-0.306-2.9-1.394-6.05-3.118-10.221-2.846-6.882-8.363-17.349-16.8-18C41.419-.027,35.576,7.417,31.536,12.6l-4.621,5.927c2.893-.424,18.8-4.872,20.763-4.693C49.226,13.964,50.8,16.222,51.511,17.392ZM80.35,38.359a42.768,42.768,0,0,1-6.443,8.364A68.255,68.255,0,0,1,55.613,61.029c2.305,1.137,8.586,3.834,15.673,1.895A23.515,23.515,0,0,0,79,59.005c2.359-1.717,4.54-4.234,7.287-7.813,4.534-5.907,10.835-15.922,7.181-23.56-3.085-6.728-12.451-8.069-18.955-8.979l-7.441-1.04c1.814,2.295,13.616,13.853,14.444,15.645C82.175,34.665,81.005,37.156,80.35,38.359ZM76.858,73.78a42.692,42.692,0,0,1-10.458-1.4,68.165,68.165,0,0,1-21.524-8.713c0.168,2.57.974,9.371,6.195,14.55a23.471,23.471,0,0,0,7.246,4.73c2.665,1.188,5.932,1.82,10.4,2.412,7.378,0.977,19.194,1.43,23.977-5.565,4.28-6.047.758-14.846-1.706-20.946l-2.819-6.979c-1.079,2.724-5.181,18.754-6.318,20.37C80.967,73.513,78.227,73.746,76.858,73.78ZM44.264,88.57a42.9,42.9,0,0,1-4.017-9.78,68.539,68.539,0,0,1-3.234-23.04c-2.137,1.431-7.61,5.532-9.475,12.653a23.619,23.619,0,0,0-.464,8.655c0.306,2.908,1.394,6.06,3.118,10.236,2.845,6.893,8.361,17.376,16.8,18.03C54.355,106.016,60.2,98.56,64.235,93.37l4.62-5.936c-2.893.425-18.795,4.879-20.759,4.7C46.549,92,44.978,89.741,44.264,88.57Zm-28.833-21a42.861,42.861,0,0,1,6.441-8.377A68.254,68.254,0,0,1,40.163,44.867c-2.3-1.14-8.584-3.84-15.67-1.9a23.478,23.478,0,0,0-7.71,3.925c-2.359,1.719-4.539,4.239-7.286,7.825C4.965,60.634-1.334,70.664,2.319,78.313,5.4,85.053,14.767,86.395,21.27,87.306l7.439,1.042C26.9,86.049,15.1,74.474,14.268,72.679,13.608,71.271,14.777,68.775,15.432,67.571Z" transform="translate(-1.031 -0.625)"></path><path id="printent" class="cls-2" d="M157.967,31.213h0a22.815,22.815,0,0,0-7.753-3.206,47.026,47.026,0,0,0-10.432-1.043c-4.237,0-10.073.054-17.335,0.156l-1.18.018V33l5.482-.306c-0.084,1.276-.126,2.727-0.126,4.321V70.571c0,2.583-.047,4.41-0.149,5.435a3.214,3.214,0,0,1-.977,2.025,4.632,4.632,0,0,1-3.068.893l-1.162.036v4.926h21.421V77.93l-7.029.384c0.078-1.264.12-2.876,0.12-4.866v-10c0.468,0.012,1,.018,1.6.018,6.513,0,11.846-.953,15.849-2.834,4.062-1.912,6.986-4.374,8.682-7.323a18.3,18.3,0,0,0,2.529-9.216C164.433,38.463,162.258,34.131,157.967,31.213Zm-5.4,20.572A12.672,12.672,0,0,1,147.23,56.4a17.591,17.591,0,0,1-7.6,1.63c-1.486,0-2.78-.042-3.853-0.126V40.435c0-2.643.048-4.47,0.15-5.429a3.078,3.078,0,0,1,.875-1.894c0.317-.33,1.066-0.719,2.828-0.719,4.728,0,8.455,1.013,11.073,3.014,2.559,1.953,3.8,4.992,3.8,9.3A12.761,12.761,0,0,1,152.563,51.785Zm44.969-8.869h0a7.213,7.213,0,0,0-4.632-1.5,14.263,14.263,0,0,0-8.173,2.7,22.309,22.309,0,0,0-3.769,3.236c-0.072-1.666-.167-3.134-0.3-4.386l-0.108-1.079h-3.8L176.4,42.2a6.415,6.415,0,0,1-2.1,1.348,11.632,11.632,0,0,1-3.841.425h-3.607v5.633l5.345-.228c-0.1,1.043-.144,2.3-0.144,3.793V70.883c0,2.427-.06,4.225-0.185,5.345a3.938,3.938,0,0,1-.881,2.223,2.988,2.988,0,0,1-2.313.713h-1.2v4.728h18.318V78.253l-4.728.228c0.1-1.085.144-2.415,0.144-4.021l-0.078-18.792a18.118,18.118,0,0,1,4.626-5.573,9.081,9.081,0,0,1,4-1.918,4.879,4.879,0,0,0,1.138,2.565,4.725,4.725,0,0,0,3.709,1.7,4.513,4.513,0,0,0,3.7-1.7,5.206,5.206,0,0,0,1.222-3.224A5.567,5.567,0,0,0,197.532,42.916Zm21.3,31.538V41.879H214.91l-0.347.318a6.169,6.169,0,0,1-2.571,1.276,27.052,27.052,0,0,1-6.243.5h-1.2V49.7l5.381-.306c-0.12,1.354-.18,2.619-0.18,3.775V70.877c0,2.427-.06,4.225-0.185,5.345a3.938,3.938,0,0,1-.881,2.223,2.988,2.988,0,0,1-2.313.713h-1.2v4.728h18.24V78.247l-4.728.228C218.781,77.384,218.829,76.054,218.829,74.454ZM214.06,36.588a5.13,5.13,0,0,0,3.858-1.738,5.722,5.722,0,0,0,1.606-4.045,6,6,0,0,0-1.5-4.093,5.051,5.051,0,0,0-7.687.024,5.994,5.994,0,0,0-.036,8.1A4.972,4.972,0,0,0,214.06,36.588ZM266.2,74.454V60.006a35.2,35.2,0,0,0-.809-8.03,16.014,16.014,0,0,0-2.528-5.843c-2.3-3.134-5.944-4.722-10.828-4.722a18.115,18.115,0,0,0-7.106,1.534,23.874,23.874,0,0,0-4.476,2.493c-0.066-1.043-.126-1.876-0.192-2.487l-0.114-1.073h-3.8L236,42.2a5.925,5.925,0,0,1-2.4,1.318,23.761,23.761,0,0,1-5.95.455h-1.2v5.729l5.345-.3c-0.1,1.043-.138,2.289-0.138,3.763l-0.078,17.7c-0.054,2.541-.126,4.38-0.228,5.459a3.613,3.613,0,0,1-.839,2.121,2.986,2.986,0,0,1-2.313.713H227v4.728h18.24V78.247l-4.728.228c0.1-1.085.144-2.415,0.144-4.009l0.078-19.811c0-1.145-.018-2.013-0.048-2.637a12.568,12.568,0,0,1,3.858-2.978,11.075,11.075,0,0,1,5.01-1.27,6.029,6.029,0,0,1,5.584,2.811c1.277,2.049,1.948,5.225,2,9.432V70.877c0,2.421-.066,4.219-0.186,5.345a3.938,3.938,0,0,1-.881,2.223,2.986,2.986,0,0,1-2.313.713h-1.2v4.728H270.8V78.247l-4.727.228C266.153,77.384,266.2,76.054,266.2,74.454Zm33.706-.288a10.574,10.574,0,0,1-3.1,3.074h0a6.219,6.219,0,0,1-3.361,1.061,3.513,3.513,0,0,1-3.506-2.007c-0.8-1.612-1.2-4.189-1.2-7.664,0-.312.012-1.822,0.036-5.117,0.024-2.7.06-7.449,0.108-15.293l13.05-.156V42.652H288.894V31.782H284.16l-0.252.857a21.078,21.078,0,0,1-3.637,7.095,6.85,6.85,0,0,1-5.41,2.924l-1.175.024v5.729l5.974-.078-0.15,21.3a25.707,25.707,0,0,0,.887,7.359,11.977,11.977,0,0,0,2.894,5.178,10.813,10.813,0,0,0,7.981,2.954,14.311,14.311,0,0,0,6.274-1.558c2.181-1.061,4.29-3.14,6.447-6.352l0.612-.9-3.961-3.224Zm41.669-1.36a14.608,14.608,0,0,1-5.357,4.225,15.336,15.336,0,0,1-6.807,1.738c-3.991,0-6.843-1.51-8.718-4.626-1.84-3.044-2.81-7.323-2.888-12.728l27.329-.467V59.767a20.755,20.755,0,0,0-2.241-10.007,15.254,15.254,0,0,0-6.148-6.262,17.739,17.739,0,0,0-8.568-2.085,19.611,19.611,0,0,0-10.786,3.062,21.044,21.044,0,0,0-7.364,8.1,23.108,23.108,0,0,0-2.618,10.768,24.053,24.053,0,0,0,2.624,11.392,19.014,19.014,0,0,0,7.25,7.694,20.031,20.031,0,0,0,10.276,2.685,23.106,23.106,0,0,0,9.707-2.283,19.379,19.379,0,0,0,8.149-7.113L346,74.826l-3.661-3.044ZM328.25,46.841a5.764,5.764,0,0,1,5.272,2.78,13.051,13.051,0,0,1,1.876,6.16H318.273C319.585,49.765,322.857,46.841,328.25,46.841ZM390.9,74.454V60.006a35.2,35.2,0,0,0-.809-8.03,16.014,16.014,0,0,0-2.528-5.843c-2.3-3.134-5.944-4.722-10.828-4.722a18.112,18.112,0,0,0-7.106,1.534,23.874,23.874,0,0,0-4.476,2.493c-0.066-1.043-.126-1.876-0.192-2.487l-0.114-1.073h-3.805l-0.347.324a5.925,5.925,0,0,1-2.4,1.318,23.761,23.761,0,0,1-5.95.455h-1.2v5.729l5.344-.3c-0.1,1.043-.137,2.289-0.137,3.763l-0.078,17.7c-0.054,2.541-.126,4.38-0.228,5.459a3.613,3.613,0,0,1-.839,2.121,2.986,2.986,0,0,1-2.313.713h-1.2v4.728h18.239V78.247l-4.727.228c0.1-1.085.144-2.415,0.144-4.009l0.077-19.811c0-1.145-.018-2.013-0.048-2.637a12.573,12.573,0,0,1,3.859-2.978,11.075,11.075,0,0,1,5.01-1.27,6.029,6.029,0,0,1,5.584,2.811c1.276,2.049,1.947,5.225,2,9.432V70.877c0,2.421-.066,4.219-0.185,5.345a3.938,3.938,0,0,1-.881,2.223,2.988,2.988,0,0,1-2.313.713h-1.2v4.728h18.24V78.247l-4.728.228C390.848,77.384,390.9,76.054,390.9,74.454Zm32.4-1.366-0.737,1.085a10.519,10.519,0,0,1-3.1,3.074,6.222,6.222,0,0,1-3.362,1.061,3.513,3.513,0,0,1-3.5-2.007c-0.8-1.612-1.2-4.189-1.2-7.664,0-.312.012-1.822,0.036-5.117,0.024-2.7.059-7.449,0.107-15.293l13.051-.156V42.658H411.538V31.782h-4.733l-0.252.857a21.078,21.078,0,0,1-3.637,7.095,6.851,6.851,0,0,1-5.411,2.924l-1.174.024v5.729l5.974-.078-0.15,21.3a25.707,25.707,0,0,0,.887,7.359,11.977,11.977,0,0,0,2.894,5.178,10.811,10.811,0,0,0,7.981,2.954,14.314,14.314,0,0,0,6.274-1.558c2.181-1.061,4.29-3.14,6.447-6.352l0.611-.9Z" transform="translate(-1.031 -0.625)"></path></svg> 